<!DOCTYPE svg PUBLIC "-//W3C//DTD SVG 20010904//EN" "http://www.w3.org/TR/2001/REC-SVG-20010904/DTD/svg10.dtd">
<svg version="1.0" xmlns="http://www.w3.org/2000/svg" width="512px" height="512px" viewBox="0 0 5120 5120" preserveAspectRatio="xMidYMid meet">
<g id="layer101" fill="#000000" stroke="none">
 <path d="M591 4319 c-17 -4 -37 -12 -45 -19 -25 -20 -38 -79 -34 -143 6 -78 35 -107 107 -107 48 0 99 30 86 51 -10 15 -26 10 -44 -12 -23 -29 -69 -28 -93 1 -23 28 -25 128 -3 169 15 30 62 55 92 49 28 -5 31 -90 4 -117 l-21 -21 35 0 35 0 0 74 0 74 -44 4 c-25 1 -59 0 -75 -3z"/>
 <path d="M880 4312 c-18 -15 -22 -25 -16 -45 5 -22 16 -30 52 -39 42 -12 45 -14 42 -43 -2 -22 -9 -31 -26 -33 -13 -2 -25 3 -28 12 -7 17 -44 22 -44 7 0 -16 43 -41 70 -41 52 0 64 20 65 106 l0 79 -36 1 c-20 1 -41 4 -47 7 -5 4 -20 -1 -32 -11z m80 -52 c0 -34 -14 -38 -48 -14 -26 18 -27 27 -6 48 23 24 54 4 54 -34z"/>
 <path d="M1423 4322 c-32 -5 -63 -49 -63 -89 0 -91 73 -134 137 -79 24 21 28 32 28 74 0 72 -35 104 -102 94z m57 -31 c5 -11 10 -38 10 -61 0 -23 -5 -50 -10 -61 -13 -22 -52 -25 -70 -4 -15 18 -15 96 0 124 14 27 56 28 70 2z"/>
 <path d="M1612 4314 c-19 -13 -22 -24 -22 -85 0 -56 -3 -71 -17 -76 -15 -6 -15 -7 3 -14 41 -16 44 -12 44 70 0 54 4 82 14 90 18 15 41 5 55 -25 15 -35 15 -124 -1 -125 -7 0 -2 -5 11 -10 13 -5 25 -8 26 -7 2 2 5 43 7 93 3 79 1 90 -14 93 -10 2 -18 -1 -18 -7 0 -6 -12 -4 -27 5 -35 17 -34 17 -61 -2z"/>
 <path d="M2234 4324 c-5 -1 -22 -5 -37 -8 -44 -10 -67 -58 -67 -139 0 -62 3 -71 29 -98 24 -23 38 -29 73 -29 46 0 88 22 88 46 0 21 -26 17 -42 -7 -19 -29 -66 -28 -90 1 -26 32 -25 134 2 177 19 32 75 53 99 38 20 -11 13 -93 -9 -115 l-20 -20 35 0 36 0 -3 73 -3 72 -41 5 c-23 3 -45 5 -50 4z"/>
 <path d="M2540 4322 c-20 -7 -30 -22 -30 -49 0 -24 43 -53 80 -53 18 0 21 -5 18 -32 -2 -25 -8 -34 -26 -36 -13 -2 -25 3 -28 12 -7 17 -44 22 -44 7 0 -16 42 -41 68 -41 54 0 62 14 62 107 0 82 -1 85 -21 80 -12 -3 -31 -2 -43 2 -11 5 -28 6 -36 3z m54 -28 c19 -19 21 -64 3 -64 -20 0 -57 30 -57 45 0 11 23 32 37 35 1 0 9 -7 17 -16z"/>
 <path d="M2921 4318 c-60 -16 -79 -120 -30 -169 38 -38 119 -11 119 41 0 18 -7 20 -55 20 -51 0 -55 2 -55 24 0 36 31 68 76 75 39 7 39 7 8 12 -16 3 -45 1 -63 -3z m49 -149 c-14 -25 -63 -23 -68 4 -3 14 4 17 38 17 38 0 40 -1 30 -21z"/>
 <path d="M4533 4323 c-61 -11 -86 -121 -38 -168 31 -32 69 -32 101 0 36 36 26 50 -39 53 -50 3 -57 6 -57 23 0 30 53 79 86 79 15 0 25 2 23 4 -9 7 -55 13 -76 9z m47 -137 c0 -33 -44 -48 -68 -24 -21 21 -13 28 28 28 22 0 40 -2 40 -4z"/>
 <path d="M780 4195 c0 -105 -3 -125 -17 -133 -14 -9 -14 -10 5 -16 12 -4 26 -4 32 -1 6 4 10 61 10 141 0 112 -2 134 -15 134 -13 0 -15 -21 -15 -125z"/>
 <path d="M1066 4312 c-3 -5 -5 -42 -5 -82 0 -45 -4 -76 -11 -80 -7 -5 -3 -10 12 -13 14 -4 27 -1 33 7 9 12 14 12 30 0 26 -20 53 -17 67 5 12 19 12 19 36 0 30 -23 46 -24 66 -3 23 22 23 174 1 174 -12 0 -15 -16 -15 -80 0 -91 -14 -110 -53 -72 -16 16 -22 37 -25 87 -3 47 -8 65 -18 65 -11 0 -14 -19 -14 -80 0 -66 -3 -82 -17 -87 -30 -12 -53 32 -53 103 0 49 -3 64 -14 64 -8 0 -17 -4 -20 -8z"/>
 <path d="M1800 4240 c0 -66 -3 -82 -17 -87 -15 -6 -15 -7 3 -14 31 -12 44 -10 44 8 0 15 2 15 19 -1 11 -10 25 -15 30 -11 16 9 13 25 -3 25 -32 0 -46 30 -46 96 0 50 -3 64 -15 64 -12 0 -15 -16 -15 -80z"/>
 <path d="M1917 4314 c-11 -11 5 -34 24 -34 12 0 19 7 19 20 0 19 -28 28 -43 14z"/>
 <path d="M2398 4240 c-2 -53 -8 -84 -16 -89 -10 -6 -8 -10 10 -14 15 -4 27 -1 34 8 10 14 13 14 24 0 15 -18 30 -20 30 -2 0 7 -10 17 -22 22 -20 9 -23 18 -26 83 -2 52 -7 72 -16 72 -10 0 -15 -21 -18 -80z"/>
 <path d="M2720 4300 c-19 -19 -24 -44 -21 -100 2 -31 44 -70 74 -70 25 0 67 26 67 41 0 15 -37 10 -44 -6 -8 -21 -43 -19 -56 4 -28 53 11 135 68 144 16 2 8 5 -20 6 -36 1 -53 -4 -68 -19z"/>
 <path d="M3050 4299 c0 -15 5 -20 22 -17 34 5 37 38 4 38 -20 0 -26 -5 -26 -21z"/>
 <path d="M3313 4312 c-22 -14 -33 -63 -33 -148 0 -71 -3 -86 -17 -91 -14 -5 -11 -8 12 -14 15 -5 32 -6 37 -3 4 3 8 54 8 113 0 92 3 110 18 124 23 21 51 22 80 1 21 -14 22 -23 22 -130 0 -69 4 -114 10 -114 6 0 10 46 10 118 0 141 -6 152 -86 152 -27 0 -54 -4 -61 -8z"/>
 <path d="M3536 4312 c-3 -5 -5 -42 -5 -82 0 -45 -4 -76 -11 -80 -7 -5 -3 -9 11 -13 27 -7 39 -1 39 19 0 11 5 10 22 -6 24 -22 58 -26 76 -8 7 7 12 44 12 95 0 66 -3 83 -15 83 -11 0 -15 -18 -17 -82 -3 -69 -6 -83 -20 -86 -30 -6 -53 34 -58 100 -5 56 -20 83 -34 60z"/>
 <path d="M3748 4248 c-1 -40 -1 -94 1 -119 1 -31 -3 -51 -13 -62 -15 -14 -14 -16 4 -22 11 -3 24 -3 30 0 6 4 10 61 10 141 0 112 -2 134 -15 134 -12 0 -15 -16 -17 -72z"/>
 <path d="M3847 4313 c-4 -3 -7 -42 -7 -85 0 -55 -4 -78 -12 -79 -7 0 -2 -4 10 -10 13 -5 28 -7 33 -3 5 3 9 45 9 95 0 67 -3 89 -13 89 -8 0 -17 -3 -20 -7z"/>
 <path d="M3947 4313 c-4 -3 -7 -42 -7 -85 0 -55 -4 -78 -12 -79 -7 0 -2 -5 12 -10 19 -8 27 -7 35 4 9 13 13 13 30 1 27 -20 51 -17 68 6 l14 20 18 -20 c23 -25 61 -26 75 -1 5 11 10 54 10 95 0 61 -3 76 -15 76 -12 0 -15 -16 -15 -80 0 -91 -14 -110 -53 -72 -16 16 -22 37 -25 87 -3 47 -8 65 -18 65 -11 0 -14 -19 -14 -80 0 -66 -3 -82 -17 -87 -30 -12 -53 32 -53 103 0 47 -4 64 -13 64 -8 0 -17 -3 -20 -7z"/>
 <path d="M4260 4246 c0 -52 -4 -79 -15 -89 -12 -13 -12 -16 7 -20 12 -4 25 -4 30 -1 4 3 8 45 8 95 0 72 -3 89 -15 89 -12 0 -15 -15 -15 -74z"/>
 <path d="M4367 4313 c-4 -3 -7 -42 -7 -85 0 -67 -2 -78 -17 -78 -17 -1 -17 -1 0 -14 9 -7 17 -18 17 -23 0 -6 6 -16 14 -22 12 -10 15 -7 18 15 2 20 10 30 28 35 l25 7 -27 1 c-28 1 -28 2 -28 69 0 74 5 87 35 95 12 3 6 5 -16 6 -20 0 -39 -2 -42 -6z"/>
 <path d="M4674 4299 c-14 -15 -19 -36 -19 -76 0 -46 4 -58 25 -75 23 -19 44 -20 83 -3 14 6 17 2 17 -28 0 -20 -7 -42 -15 -51 -13 -13 -13 -15 5 -21 11 -3 24 -3 30 0 6 4 10 60 10 139 l0 132 -59 2 c-48 1 -62 -2 -77 -19z m94 -19 c14 -28 10 -93 -8 -115 -16 -19 -44 -19 -60 0 -15 18 -15 96 0 125 15 28 50 23 68 -10z"/>
 <path d="M4865 4310 c-9 -15 4 -30 26 -30 12 0 19 7 19 20 0 21 -33 29 -45 10z"/>
 <path d="M3840 4070 c0 -15 5 -20 18 -18 9 2 17 10 17 18 0 8 -8 16 -17 18 -13 2 -18 -3 -18 -18z"/>
 <path d="M4250 4071 c0 -15 6 -21 21 -21 14 0 19 5 17 17 -5 26 -38 29 -38 4z"/>
 <path d="M3081 3580 c-29 -4 -86 -20 -127 -35 l-74 -27 0 -195 0 -195 -22 6 c-44 13 -234 36 -296 36 -266 1 -539 -84 -710 -221 -190 -152 -308 -449 -288 -726 24 -349 208 -616 507 -738 103 -42 225 -64 389 -72 124 -5 216 3 460 42 85 13 160 19 160 13 0 -2 7 -70 15 -153 8 -82 15 -162 15 -177 0 -59 -8 -58 453 -58 246 0 468 -5 535 -12 91 -9 115 -9 122 2 14 23 -29 433 -48 452 -18 18 -32 -2 -32 -43 0 -47 -22 -104 -52 -137 -47 -49 -94 -55 -490 -60 -304 -3 -368 -2 -368 10 0 7 -9 108 -20 223 -28 298 -32 270 43 284 125 24 288 78 414 136 190 88 389 265 458 409 98 204 105 446 19 662 -79 201 -248 386 -439 481 -54 27 -187 70 -260 83 -81 15 -297 21 -364 10z m453 -157 c201 -50 357 -218 402 -433 22 -104 15 -300 -14 -390 -90 -278 -425 -532 -763 -581 -122 -17 -119 -14 -118 -117 1 -138 -47 -250 -133 -307 -91 -61 -260 -97 -453 -98 -162 -1 -251 18 -365 75 -210 106 -316 295 -327 586 -8 197 18 324 99 486 139 276 431 439 758 423 129 -6 204 -26 238 -63 22 -25 22 -29 21 -292 0 -180 -4 -278 -12 -301 -17 -48 -56 -73 -122 -79 -38 -3 -55 -9 -55 -18 0 -12 48 -14 271 -14 210 0 270 3 267 12 -3 7 -23 16 -46 20 -23 4 -50 12 -61 18 -43 23 -46 41 -49 360 -1 168 -4 314 -7 326 -3 14 -24 30 -65 48 -67 30 -70 37 -45 120 30 97 76 149 177 196 106 50 260 59 402 23z"/>
 <path d="M4272 458 l3 -153 55 2 c83 3 100 10 116 48 18 43 10 79 -23 105 l-25 19 31 54 c38 67 39 77 3 77 -23 0 -33 -9 -62 -62 l-35 -63 -3 63 c-3 62 -3 62 -33 62 l-30 0 3 -152z m126 -60 c2 -12 -6 -21 -23 -28 -33 -13 -45 -6 -45 26 0 22 4 25 32 22 22 -2 34 -9 36 -20z"/>
 </g>
<g id="layer102" fill="#000000" stroke="none">
 <path d="M2383 3752 c-102 -37 -207 -138 -246 -240 -29 -73 -26 -78 47 -85 107 -10 203 -69 247 -151 13 -26 30 -46 36 -46 7 0 31 18 53 40 39 39 40 42 40 108 0 37 3 77 6 88 9 34 -49 94 -90 94 -67 0 -122 -90 -97 -161 17 -50 4 -47 -19 3 -16 37 -18 51 -9 83 17 59 58 95 111 95 47 0 100 -27 118 -59 10 -20 11 -20 47 4 41 29 90 32 134 9 17 -8 33 -14 35 -11 7 6 -66 121 -99 155 -76 78 -212 111 -314 74z m157 -357 c0 -29 -32 -65 -57 -64 -14 0 -14 2 3 9 12 5 27 24 34 44 14 42 20 46 20 11z"/>
 <path d="M2028 3626 c-209 -86 -349 -278 -503 -691 -52 -142 -90 -207 -151 -265 -158 -149 -417 -157 -563 -17 -38 37 -42 39 -36 17 20 -73 125 -174 219 -209 68 -25 174 -28 237 -6 128 46 205 131 344 382 54 98 125 227 159 288 72 130 153 217 241 261 l60 30 6 58 c4 35 19 80 38 116 35 68 32 70 -51 36z"/>
 <path d="M1018 3351 c-201 -64 -335 -265 -302 -452 l10 -54 18 60 c49 162 147 239 306 240 65 0 82 -4 130 -30 42 -23 60 -41 78 -77 48 -94 21 -245 -52 -289 l-31 -19 28 0 c79 0 177 83 228 192 28 62 33 84 33 143 -1 125 -38 198 -127 249 -97 56 -215 70 -319 37z"/>
 <path d="M2173 3320 c-32 -13 -29 -25 21 -74 31 -32 54 -46 84 -51 46 -7 152 11 152 27 0 23 -46 72 -84 89 -44 20 -135 24 -173 9z"/>
 <path d="M298 3027 c-15 -12 -38 -40 -52 -61 -50 -75 -29 -188 46 -251 42 -35 105 -64 141 -65 26 0 27 2 27 53 0 63 27 125 66 156 l29 23 -29 24 c-26 23 -34 24 -85 18 -31 -3 -64 -13 -73 -22 -24 -21 -22 -57 4 -82 25 -23 49 -25 81 -8 20 10 21 10 8 -5 -17 -21 -70 -22 -99 -1 -27 19 -31 84 -6 109 15 15 15 17 -2 36 -10 11 -20 38 -23 59 l-6 40 -27 -23z"/>
 <path d="M531 2834 c-25 -32 -28 -101 -6 -130 15 -19 16 -18 40 9 27 30 31 66 14 116 -13 38 -21 39 -48 5z"/>
 <path d="M340 2608 c0 -23 63 -101 106 -130 71 -49 169 -88 285 -113 192 -42 238 -56 278 -86 51 -36 89 -102 103 -177 11 -60 10 -65 -26 -167 -5 -12 9 -2 32 22 47 51 67 113 59 185 -14 113 -87 171 -312 248 -240 81 -274 97 -331 155 -47 47 -57 53 -105 57 -30 3 -62 9 -71 13 -13 5 -18 3 -18 -7z"/>
 <path d="M745 2291 c-84 -22 -116 -57 -136 -150 -36 -169 165 -352 318 -290 l28 12 -39 9 c-96 21 -154 83 -162 172 -10 98 52 161 149 153 26 -2 56 -12 67 -22 27 -24 25 -6 -2 35 -41 60 -151 100 -223 81z"/>
 <path d="M1350 1970 c-51 -27 -97 -79 -195 -220 -105 -150 -155 -205 -210 -225 -34 -13 -43 -23 -54 -58 -7 -23 -20 -50 -28 -60 -24 -26 -9 -31 44 -13 106 36 201 143 298 336 50 100 77 134 133 167 39 23 57 27 118 27 57 -1 80 -6 118 -27 29 -16 46 -21 46 -13 0 16 -58 70 -97 90 -43 22 -129 20 -173 -4z"/>
 <path d="M1339 1817 c-64 -34 -104 -102 -103 -176 0 -70 21 -104 85 -137 126 -63 295 9 328 142 14 53 14 74 1 74 -5 0 -10 -5 -10 -12 0 -19 -50 -77 -80 -93 -37 -19 -123 -19 -160 0 -34 17 -60 62 -60 100 0 35 26 94 45 101 16 6 21 24 7 24 -5 0 -29 -10 -53 -23z"/>
 <path d="M723 1642 c-13 -2 -23 -9 -23 -16 0 -37 96 -79 130 -57 13 9 12 14 -6 38 -21 28 -60 41 -101 35z"/>
 <path d="M635 1605 c-15 -15 -25 -36 -25 -54 0 -16 -3 -36 -6 -44 -6 -17 29 -57 50 -57 24 0 58 35 59 62 1 14 5 24 10 21 13 -8 7 -40 -14 -67 -27 -34 -72 -35 -102 -2 -17 18 -27 22 -38 15 -20 -13 -63 -11 -77 3 -24 24 -13 -17 18 -66 35 -54 76 -76 145 -76 70 0 147 48 181 112 21 40 18 46 -26 58 -46 12 -95 51 -116 91 -18 35 -28 36 -59 4z"/>
 <path d="M1439 1454 c-9 -3 -38 -30 -64 -61 -38 -44 -49 -64 -49 -91 0 -89 125 -95 168 -8 14 29 16 29 16 8 0 -61 -79 -112 -140 -90 -34 11 -70 64 -70 102 0 20 -5 26 -20 26 -34 0 -79 29 -100 62 -17 29 -20 30 -27 12 -16 -38 -9 -167 12 -208 47 -96 130 -145 245 -146 91 0 131 10 194 50 l47 30 -44 44 c-57 55 -90 138 -85 216 l3 55 -35 2 c-19 0 -42 -1 -51 -3z m-14 -63 c-16 -10 -32 -16 -35 -14 -8 7 32 33 49 33 9 0 3 -8 -14 -19z"/>
 <path d="M1550 1402 c0 -53 30 -103 83 -136 57 -35 71 -28 65 36 -5 52 -37 96 -90 124 -45 24 -58 18 -58 -24z"/>
 <path d="M2545 1344 c-65 -17 -143 -46 -329 -126 -115 -49 -229 -96 -255 -104 -49 -15 -193 -18 -226 -5 -16 6 -28 0 -56 -29 -20 -20 -57 -45 -82 -56 -26 -10 -47 -22 -47 -26 0 -16 110 -39 190 -39 152 0 299 56 545 205 135 82 222 111 307 102 149 -15 307 -155 308 -273 0 -45 18 -50 26 -7 24 128 -57 285 -175 337 -45 20 -163 32 -206 21z"/>
 <path d="M2429 1157 c-63 -18 -133 -61 -163 -100 -35 -46 -66 -117 -66 -154 0 -43 34 -118 77 -171 122 -149 382 -158 511 -18 37 40 68 86 59 86 -2 0 -34 -16 -71 -35 -101 -53 -193 -47 -278 18 -142 107 -100 294 77 343 l40 11 -29 12 c-47 19 -107 22 -157 8z"/>
 </g>
<g id="layer103" fill="#ffffff" stroke="none">
 <path d="M0 2560 l0 -2560 2560 0 2560 0 0 2560 0 2560 -2560 0 -2560 0 0 -2560z m710 1684 l0 -74 -35 0 -35 0 21 21 c27 27 24 112 -4 117 -30 6 -77 -19 -92 -49 -22 -41 -20 -141 3 -169 24 -29 70 -30 93 -1 18 22 34 27 44 12 13 -21 -38 -51 -86 -51 -72 0 -101 29 -107 107 -4 64 9 123 34 143 20 17 67 26 120 22 l44 -4 0 -74z m249 72 l36 -1 0 -79 c-1 -86 -13 -106 -65 -106 -27 0 -70 25 -70 41 0 15 37 10 44 -7 3 -9 15 -14 28 -12 17 2 24 11 26 33 3 29 0 31 -42 43 -36 9 -47 17 -52 39 -6 20 -2 30 16 45 12 10 27 15 32 11 6 -3 27 -6 47 -7z m548 -18 c12 -14 18 -36 18 -70 0 -42 -4 -53 -28 -74 -45 -38 -98 -31 -122 17 -21 40 -19 92 5 122 31 40 93 42 127 5z m166 18 c15 -9 27 -11 27 -5 0 6 8 9 18 7 15 -3 17 -14 14 -93 -2 -50 -5 -91 -7 -93 -1 -1 -13 2 -26 7 -13 5 -18 10 -11 10 16 1 16 90 1 125 -14 30 -37 40 -55 25 -10 -8 -14 -36 -14 -90 0 -82 -3 -86 -44 -70 -18 7 -18 8 -3 14 14 5 17 20 17 76 0 61 3 72 22 85 27 19 26 19 61 2z m655 -73 l3 -73 -36 0 -35 0 20 20 c22 22 29 104 9 115 -24 15 -80 -6 -99 -38 -27 -43 -28 -145 -2 -177 24 -29 71 -30 90 -1 16 24 42 28 42 7 0 -24 -42 -46 -88 -46 -35 0 -49 6 -73 29 -26 27 -29 36 -29 98 0 81 23 129 67 139 15 3 32 7 37 8 5 1 27 -1 50 -4 l41 -5 3 -72z m291 74 c20 5 21 2 21 -80 0 -93 -8 -107 -62 -107 -26 0 -68 25 -68 41 0 15 37 10 44 -7 3 -9 15 -14 28 -12 18 2 24 11 26 36 3 27 0 32 -18 32 -37 0 -80 29 -80 53 0 41 28 60 66 46 12 -4 31 -5 43 -2z m357 -8 c-45 -7 -76 -39 -76 -75 0 -22 4 -24 55 -24 48 0 55 -2 55 -20 0 -29 -36 -60 -70 -60 -61 0 -95 74 -67 143 17 40 56 57 111 48 31 -5 31 -5 -8 -12z m1633 5 c2 -2 -8 -4 -23 -4 -33 0 -86 -49 -86 -79 0 -17 7 -20 57 -23 65 -3 75 -17 39 -53 -32 -32 -70 -32 -101 0 -48 47 -23 157 38 168 21 4 67 -2 76 -9z m-3799 -128 c0 -80 -4 -137 -10 -141 -6 -3 -20 -3 -32 1 -19 6 -19 7 -5 16 14 8 17 28 17 133 0 104 2 125 15 125 13 0 15 -22 15 -134z m290 70 c0 -71 23 -115 53 -103 14 5 17 21 17 87 0 61 3 80 14 80 10 0 15 -18 18 -65 3 -50 9 -71 25 -87 39 -38 53 -19 53 72 0 64 3 80 15 80 22 0 22 -152 -1 -174 -20 -21 -36 -20 -66 3 -24 19 -24 19 -36 0 -14 -22 -41 -25 -67 -5 -16 12 -21 12 -30 0 -6 -8 -19 -11 -33 -7 -15 3 -19 8 -12 13 7 4 11 35 11 80 0 80 3 90 25 90 11 0 14 -15 14 -64z m730 0 c0 -66 14 -96 46 -96 16 0 19 -16 3 -25 -5 -4 -19 1 -30 11 -17 16 -19 16 -19 1 0 -18 -13 -20 -44 -8 -18 7 -18 8 -3 14 14 5 17 21 17 87 0 64 3 80 15 80 12 0 15 -14 15 -64z m130 44 c0 -23 -35 -28 -43 -6 -7 18 1 26 25 26 11 0 18 -7 18 -20z m472 -52 c3 -65 6 -74 26 -83 12 -5 22 -15 22 -22 0 -18 -15 -16 -30 2 -11 14 -14 14 -24 0 -7 -9 -19 -12 -34 -8 -18 4 -20 8 -10 14 8 5 14 36 16 89 3 59 8 80 18 80 9 0 14 -20 16 -72z m376 65 c-57 -9 -96 -91 -68 -144 13 -23 48 -25 56 -4 7 16 44 21 44 6 0 -15 -42 -41 -67 -41 -30 0 -72 39 -74 70 -6 92 16 121 89 119 28 -1 36 -4 20 -6z m290 -10 c-2 -10 -13 -19 -26 -21 -17 -3 -22 2 -22 17 0 16 6 21 26 21 19 0 25 -5 22 -17z m344 0 c15 -14 18 -32 18 -135 0 -72 -4 -118 -10 -118 -6 0 -10 45 -10 114 0 107 -1 116 -22 130 -29 21 -57 20 -80 -1 -15 -14 -18 -32 -18 -124 0 -59 -4 -110 -8 -113 -5 -3 -22 -2 -37 3 -23 6 -26 9 -12 14 14 5 17 20 17 91 0 85 11 134 33 148 23 15 110 9 129 -9z m128 -51 c5 -66 28 -106 58 -100 14 3 17 17 20 86 2 64 6 82 17 82 12 0 15 -17 15 -83 0 -51 -5 -88 -12 -95 -18 -18 -52 -14 -76 8 -17 16 -22 17 -22 6 0 -20 -12 -26 -39 -19 -14 4 -18 8 -11 13 7 4 11 35 11 80 0 40 2 77 5 82 14 23 29 -4 34 -60z m210 -66 c0 -80 -4 -137 -10 -141 -6 -3 -19 -3 -30 0 -18 6 -19 8 -4 22 10 11 14 31 13 62 -2 25 -2 79 -1 119 2 56 5 72 17 72 13 0 15 -22 15 -134z m100 45 c0 -50 -4 -92 -9 -95 -5 -4 -20 -2 -33 3 -12 6 -17 10 -10 10 8 1 12 24 12 79 0 80 3 92 27 92 10 0 13 -22 13 -89z m100 25 c0 -71 23 -115 53 -103 14 5 17 21 17 87 0 61 3 80 14 80 10 0 15 -18 18 -65 3 -50 9 -71 25 -87 39 -38 53 -19 53 72 0 64 3 80 15 80 12 0 15 -15 15 -76 0 -41 -5 -84 -10 -95 -14 -25 -52 -24 -75 1 l-18 20 -14 -20 c-17 -23 -41 -26 -68 -6 -17 12 -21 12 -30 -1 -8 -11 -16 -12 -35 -4 -14 5 -19 10 -12 10 8 1 12 24 12 79 0 80 3 92 27 92 9 0 13 -17 13 -64z m310 -25 c0 -50 -4 -92 -8 -95 -5 -3 -18 -3 -30 1 -19 4 -19 7 -7 20 11 10 15 37 15 89 0 59 3 74 15 74 12 0 15 -17 15 -89z m135 82 c-30 -8 -35 -21 -35 -95 0 -67 0 -68 28 -69 l27 -1 -25 -7 c-18 -5 -26 -15 -28 -35 -3 -22 -6 -25 -18 -15 -8 6 -14 16 -14 22 0 5 -8 16 -17 23 -17 13 -17 13 0 14 15 0 17 11 17 78 0 43 3 82 7 85 3 4 22 6 42 6 22 -1 28 -3 16 -6z m385 -129 c0 -79 -4 -135 -10 -139 -6 -3 -19 -3 -30 0 -18 6 -18 8 -5 21 8 9 15 31 15 51 0 30 -3 34 -17 28 -39 -17 -60 -16 -83 3 -21 17 -25 29 -25 75 0 78 19 97 96 95 l59 -2 0 -132z m100 116 c0 -21 -33 -29 -45 -10 -9 15 4 30 26 30 12 0 19 -7 19 -20z m-1035 -230 c0 -8 -8 -16 -17 -18 -13 -2 -18 3 -18 18 0 15 5 20 18 18 9 -2 17 -10 17 -18z m413 -3 c2 -12 -3 -17 -17 -17 -15 0 -21 6 -21 21 0 25 33 22 38 -4z m-1675 -330 c29 -15 67 -41 84 -59 33 -34 106 -149 99 -155 -2 -3 -18 3 -35 11 -44 23 -93 20 -134 -9 -36 -24 -37 -24 -47 -4 -18 32 -71 59 -118 59 -53 0 -94 -36 -111 -95 -9 -32 -7 -46 9 -83 23 -50 36 -53 19 -3 -25 71 30 161 97 161 41 0 99 -60 90 -94 -3 -11 -6 -51 -6 -88 0 -66 -1 -69 -40 -108 -22 -22 -46 -40 -53 -40 -6 0 -23 20 -36 46 -44 82 -140 141 -247 151 -73 7 -76 12 -47 85 39 102 144 203 246 240 70 25 159 19 230 -15z m-534 -147 c-19 -36 -34 -81 -38 -116 l-6 -58 -60 -30 c-88 -44 -169 -131 -241 -261 -34 -61 -105 -190 -159 -288 -139 -251 -216 -336 -344 -382 -63 -22 -169 -19 -237 6 -94 35 -199 136 -219 209 -6 22 -2 20 36 -17 146 -140 405 -132 563 17 61 58 99 123 151 265 154 413 294 605 503 691 83 34 86 32 51 -36z m1366 -20 c73 -13 206 -56 260 -83 79 -39 185 -120 258 -197 246 -256 310 -637 162 -946 -69 -144 -268 -321 -458 -409 -126 -58 -289 -112 -414 -136 -75 -14 -71 14 -43 -284 11 -115 20 -216 20 -223 0 -12 64 -13 368 -10 396 5 443 11 490 60 30 33 52 90 52 137 0 41 14 61 32 43 19 -19 62 -429 48 -452 -7 -11 -31 -11 -122 -2 -67 7 -289 12 -535 12 -461 0 -453 -1 -453 58 0 15 -7 95 -15 177 -8 83 -15 151 -15 153 0 6 -75 0 -160 -13 -321 -51 -476 -55 -675 -20 -326 58 -570 284 -651 602 -72 285 -20 569 146 795 150 205 477 339 822 338 62 0 252 -23 296 -36 l22 -6 0 195 0 195 74 27 c41 15 98 31 127 35 67 11 283 5 364 -10z m-2204 -216 c157 -46 222 -130 223 -289 0 -59 -5 -81 -33 -143 -51 -109 -149 -192 -228 -192 l-28 0 31 19 c73 44 100 195 52 289 -18 36 -36 54 -78 77 -48 26 -65 30 -130 30 -159 -1 -257 -78 -306 -240 l-18 -60 -10 54 c-48 275 252 535 525 455z m1105 -43 c38 -17 84 -66 84 -89 0 -16 -106 -34 -152 -27 -30 5 -53 19 -84 51 -24 24 -44 48 -44 54 0 32 133 40 196 11z m-1992 -360 c17 -19 17 -21 2 -36 -25 -25 -21 -90 6 -109 29 -21 82 -20 99 1 13 15 12 15 -8 5 -32 -17 -56 -15 -81 8 -26 25 -28 61 -4 82 9 9 42 19 73 22 51 6 59 5 85 -18 l29 -24 -29 -23 c-39 -31 -66 -93 -66 -156 0 -51 -1 -53 -27 -53 -36 1 -99 30 -141 65 -75 63 -96 176 -46 251 14 21 37 49 52 61 l27 23 6 -40 c3 -21 13 -48 23 -59z m225 -122 c17 -50 13 -86 -14 -116 -24 -27 -25 -28 -40 -9 -22 29 -19 98 6 130 27 34 35 33 48 -5z m-150 -227 c48 -4 58 -10 105 -57 57 -58 91 -74 331 -155 225 -77 298 -135 312 -248 8 -72 -12 -134 -59 -185 -23 -24 -37 -34 -32 -22 36 102 37 107 26 167 -14 75 -52 141 -103 177 -40 30 -86 44 -278 86 -116 25 -214 64 -285 113 -67 46 -140 158 -88 137 9 -4 41 -10 71 -13z m471 -335 c25 -13 55 -38 68 -57 27 -41 29 -59 2 -35 -11 10 -41 20 -67 22 -97 8 -159 -55 -149 -153 8 -89 66 -151 162 -172 l39 -9 -28 -12 c-112 -45 -273 50 -312 183 -27 92 5 200 68 233 74 38 141 38 217 0z m628 -296 c46 -24 87 -66 102 -106 l11 -29 -24 26 c-41 44 -86 61 -162 62 -60 0 -78 -4 -117 -27 -56 -33 -83 -67 -133 -167 -97 -193 -192 -300 -298 -336 -53 -18 -68 -13 -44 13 8 10 21 37 28 60 11 35 20 45 54 58 55 20 105 75 210 225 98 141 144 193 195 220 47 25 130 26 178 1z m-128 -140 c0 -5 -7 -12 -15 -15 -19 -7 -45 -66 -45 -101 0 -38 26 -83 60 -100 37 -19 123 -19 160 0 30 16 80 74 80 93 0 7 5 12 10 12 13 0 13 -21 -1 -74 -33 -133 -202 -205 -328 -142 -64 33 -85 67 -85 137 -1 74 39 142 103 176 48 25 61 28 61 14z m-576 -224 c18 -24 19 -29 6 -38 -34 -22 -130 20 -130 57 0 34 96 19 124 -19z m-130 -6 c21 -40 70 -79 116 -91 44 -12 47 -18 26 -58 -34 -64 -111 -112 -181 -112 -69 0 -110 22 -145 76 -31 49 -42 90 -18 66 14 -14 57 -16 77 -3 11 7 21 3 38 -15 30 -33 75 -32 102 2 21 27 27 59 14 67 -5 3 -9 -7 -10 -21 -1 -27 -35 -62 -59 -62 -21 0 -56 40 -50 57 3 8 6 28 6 44 0 29 37 79 59 79 6 0 17 -13 25 -29z m828 -201 c-5 -78 28 -161 85 -216 l44 -44 -47 -30 c-63 -40 -103 -50 -194 -50 -115 1 -198 50 -245 146 -21 41 -28 170 -12 208 7 18 10 17 27 -12 21 -33 66 -62 100 -62 15 0 20 -6 20 -26 0 -38 36 -91 70 -102 61 -22 140 29 140 90 0 21 -2 21 -16 -8 -43 -87 -168 -81 -168 8 0 27 11 47 49 91 52 61 62 66 115 64 l35 -2 -3 -55z m86 26 c53 -28 85 -72 90 -124 6 -64 -8 -71 -65 -36 -53 33 -83 83 -83 136 0 42 13 48 58 24z m1143 -103 c118 -52 199 -209 175 -337 -8 -43 -26 -38 -26 7 -1 118 -159 258 -308 273 -85 9 -172 -20 -307 -102 -246 -149 -393 -205 -545 -205 -80 0 -190 23 -190 39 0 4 21 16 47 26 25 11 62 36 82 56 28 29 40 35 56 29 33 -13 177 -10 226 5 26 8 140 55 255 104 186 80 264 109 329 126 43 11 161 -1 206 -21z m-165 -174 l29 -12 -40 -11 c-134 -37 -199 -158 -143 -266 26 -51 91 -104 146 -120 71 -19 126 -13 198 25 37 19 69 35 71 35 9 0 -22 -46 -59 -86 -129 -140 -389 -131 -511 18 -43 53 -77 128 -77 171 1 71 65 172 137 214 88 51 174 62 249 32z m1746 -601 l3 -63 35 63 c29 53 39 62 62 62 36 0 35 -10 -3 -77 l-31 -54 25 -19 c33 -26 41 -62 23 -105 -16 -38 -33 -45 -116 -48 l-55 -2 -3 153 -3 152 30 0 c30 0 30 0 33 -62z"/>
 <path d="M906 4294 c-21 -21 -20 -30 6 -48 34 -24 48 -20 48 14 0 38 -31 58 -54 34z"/>
 <path d="M1410 4289 c-15 -28 -15 -106 0 -124 18 -21 57 -18 70 4 5 11 10 38 10 61 0 23 -5 50 -10 61 -14 26 -56 25 -70 -2z"/>
 <path d="M2558 4299 c-24 -14 -22 -35 4 -53 32 -23 48 -20 48 8 0 19 -23 57 -33 56 -1 0 -10 -5 -19 -11z"/>
 <path d="M2902 4173 c5 -27 54 -29 68 -4 10 20 8 21 -30 21 -34 0 -41 -3 -38 -17z"/>
 <path d="M4500 4182 c0 -30 63 -44 74 -16 9 24 9 24 -34 24 -22 0 -40 -4 -40 -8z"/>
 <path d="M4700 4290 c-15 -29 -15 -107 0 -125 30 -36 69 -9 76 52 9 70 -48 124 -76 73z"/>
 <path d="M2520 3384 c-7 -20 -22 -39 -34 -44 -17 -7 -17 -9 -3 -9 25 -1 57 35 57 64 0 35 -6 31 -20 -11z"/>
 <path d="M3267 3440 c-76 -9 -186 -56 -230 -98 -39 -37 -64 -81 -82 -138 -25 -83 -22 -90 45 -120 41 -18 62 -34 65 -48 3 -12 6 -158 7 -326 3 -319 6 -337 49 -360 11 -6 38 -14 61 -18 23 -4 43 -13 46 -20 3 -9 -57 -12 -267 -12 -223 0 -271 2 -271 14 0 9 17 15 55 18 66 6 105 31 122 79 8 23 12 121 12 301 1 263 1 267 -21 292 -34 37 -109 57 -238 63 -327 16 -619 -147 -758 -423 -81 -162 -107 -289 -99 -486 11 -291 117 -480 327 -586 114 -57 203 -76 365 -75 193 1 362 37 453 98 86 57 134 169 133 307 -1 103 -4 100 118 117 212 31 445 152 592 309 141 151 189 263 196 462 8 220 -41 366 -166 491 -127 128 -307 183 -514 159z"/>
 <path d="M1404 1396 c-29 -22 -13 -26 21 -5 17 11 23 19 14 19 -8 0 -24 -6 -35 -14z"/>
 <path d="M4330 396 c0 -32 12 -39 45 -26 37 14 30 44 -13 48 -28 3 -32 0 -32 -22z"/>
 </g>

</svg>